<!-- icon666.com - MILLIONS OF FREE VECTOR ICONS --><svg xmlns="http://www.w3.org/2000/svg" id="Layer_1" data-name="Layer 1" viewBox="0 0 64 64"><circle cx="28.76" cy="60" r="1" fill="#000000" style="fill: rgb(255, 0, 0);"></circle><path d="M12.69,61H25.76a1,1,0,1,0,0-2H12.69a1,1,0,0,1-1-1V55.45a1,1,0,0,1,1-1H51.31a1,1,0,0,1,1,1V58a1,1,0,0,1-1,1H32.76a1,1,0,1,0,0,2H51.31a3,3,0,0,0,3-3V55.45a3,3,0,0,0-3-3H50.19A23,23,0,0,0,37.48,32c4.63-2.37,12.31-8.17,12.71-20.43h1.12a3,3,0,0,0,3-3V6a3,3,0,0,0-3-3H38.24a1,1,0,0,0,0,2H51.31a1,1,0,0,1,1,1V8.55a1,1,0,0,1-1,1H12.69a1,1,0,0,1-1-1V6a1,1,0,0,1,1-1H31.24a1,1,0,0,0,0-2H12.69a3,3,0,0,0-3,3V8.55a3,3,0,0,0,3,3H48.21c-.36,10.64-6.48,16-11.65,18.65a2,2,0,0,0,0,3.6c5.17,2.64,11.29,8,11.65,18.65H15.79c.36-10.64,6.48-16,11.65-18.65a2,2,0,0,0,0-3.6A20.48,20.48,0,0,1,16,13.71a1,1,0,0,0-2,.23A22.57,22.57,0,0,0,26.52,32c-4.63,2.37-12.31,8.17-12.71,20.43H12.69a3,3,0,0,0-3,3V58A3,3,0,0,0,12.69,61Z" fill="#000000" style="fill: rgb(255, 0, 0);"></path><circle cx="35.24" cy="4" r="1" fill="#000000" style="fill: rgb(255, 0, 0);"></circle><path d="M41.32,41.32a1,1,0,0,0,.08-1.4,0,0,0,0,0,0,0A1,1,0,0,0,40,39.84a1,1,0,0,0,.67,1.74A1,1,0,0,0,41.32,41.32Z" fill="#000000" style="fill: rgb(255, 0, 0);"></path><path d="M31.41,35.49s0,0,0,0a1,1,0,0,0-.25-1.38,1,1,0,0,0-1.38.23,0,0,0,0,0,0,0,1,1,0,0,0-.17.75,1,1,0,0,0,.41.64,1,1,0,0,0,.58.19A1,1,0,0,0,31.41,35.49Z" fill="#000000" style="fill: rgb(255, 0, 0);"></path><path d="M35.65,28.42a20,20,0,0,0,6-4.62,1,1,0,0,0,.14-1.1,1,1,0,0,0-1-.56,135.89,135.89,0,0,1-17.7-.05,1,1,0,0,0-1,.55,1,1,0,0,0,.13,1.1,19.78,19.78,0,0,0,6.05,4.68,4,4,0,0,1,2.1,2.86,1,1,0,0,0,1,.83,6,6,0,0,0,3.26,5.25,19.21,19.21,0,0,1,3.1,2,1,1,0,0,0,.61.21,1,1,0,0,0,.79-.38,1,1,0,0,0-.17-1.4,20.12,20.12,0,0,0-3.42-2.18,4,4,0,0,1,0-7.16ZM32,29.54a5.94,5.94,0,0,0-2.74-2.9,18.81,18.81,0,0,1-3.62-2.4c4.28.21,8.57.22,12.67,0a19.21,19.21,0,0,1-3.57,2.36A5.94,5.94,0,0,0,32,29.54Z" fill="#000000" style="fill: rgb(255, 0, 0);"></path><path d="M28.75,37.63a1,1,0,1,0-1-1.75,18.43,18.43,0,0,0-9.67,13.4,1,1,0,0,0,.22.81,1,1,0,0,0,.76.36H44.9a1,1,0,0,0,1-1.17,19.26,19.26,0,0,0-2-5.93,1,1,0,0,0-1.36-.4,1,1,0,0,0-.4,1.36,17.15,17.15,0,0,1,1.58,4.14H20.33A16.41,16.41,0,0,1,28.75,37.63Z" fill="#000000" style="fill: rgb(255, 0, 0);"></path></svg>