<!-- icon666.com - MILLIONS OF FREE VECTOR ICONS --><svg version="1.1" id="Capa_1" xmlns="http://www.w3.org/2000/svg" xmlns:xlink="http://www.w3.org/1999/xlink" x="0px" y="0px" viewBox="0 0 409.603 409.603" style="enable-background:new 0 0 409.603 409.603;" xml:space="preserve"><g><g><path d="M405.678,72.034l-24.54-50.35C371.82,2.566,348.672-5.411,329.554,3.907L52.055,139.168 c-0.932,0.451-1.705,1.183-2.217,2.084L2.089,225.926c-1.879,3.707-1.915,7.982-0.097,11.72c1.823,3.738,5.212,6.344,9.513,7.188 l95.893,14.505c0.256,0.036,0.512,0.056,0.763,0.056c0.773,0,1.541-0.174,2.243-0.517l277.509-135.265 c9.262-4.516,16.21-12.37,19.569-22.108C410.834,91.762,410.199,81.291,405.678,72.034z M285.21,36.911l13.138,26.952 L76.416,172.038l-13.138-26.952L285.21,36.911z M302.833,73.068l14.131,28.984L95.032,210.233l-14.131-28.989L302.833,73.068z M13.261,234.748c-1.234-0.246-1.823-1.106-2.063-1.592c-0.236-0.486-0.548-1.475-0.087-2.401l10.66-18.898l12.718,26.102 L13.261,234.748z M46.715,239.806c-0.041-0.092-0.031-0.195-0.077-0.287l-18.621-38.195c-0.046-0.092-0.128-0.143-0.179-0.236 l27.551-48.829l46.756,95.928L46.715,239.806z M112.655,246.391l-13.138-26.952l221.926-108.175l13.138,26.952L112.655,246.391z M343.782,133.73L294.41,32.426l12.442-6.062l49.377,101.299L343.782,133.73z M397.809,98.156 c-2.468,7.158-7.572,12.928-14.382,16.241l-17.997,8.776L316.053,21.874l18.002-8.771c14.029-6.851,31.037-0.988,37.893,13.056 l24.54,50.35C399.8,83.314,400.271,91.004,397.809,98.156z" fill="#000000" style="fill: rgb(255, 0, 0);"></path></g></g><g><g><path d="M404.48,283.89H5.12c-2.831,0-5.12,2.294-5.12,5.12v115.461c0,2.826,2.289,5.12,5.12,5.12h399.36 c2.831,0,5.12-2.294,5.12-5.12V289.01C409.6,286.183,407.311,283.89,404.48,283.89z M399.38,399.351h-0.021H10.24V294.13h22.769 v25.892c0,2.826,2.289,5.12,5.12,5.12s5.12-2.294,5.12-5.12V294.13H61.03v25.892c0,2.826,2.289,5.12,5.12,5.12 c2.831,0,5.12-2.294,5.12-5.12V294.13h17.777v25.892c0,2.826,2.289,5.12,5.12,5.12s5.12-2.294,5.12-5.12V294.13h17.782v25.892 c0,2.826,2.289,5.12,5.12,5.12c2.831,0,5.12-2.294,5.12-5.12V294.13h17.782v25.892c0,2.826,2.289,5.12,5.12,5.12 s5.12-2.294,5.12-5.12V294.13h17.777v25.892c0,2.826,2.289,5.12,5.12,5.12c2.831,0,5.12-2.294,5.12-5.12V294.13h17.782v25.892 c0,2.826,2.289,5.12,5.12,5.12s5.12-2.294,5.12-5.12V294.13h17.777v25.892c0,2.826,2.289,5.12,5.12,5.12s5.12-2.294,5.12-5.12 V294.13h17.782v25.892c0,2.826,2.289,5.12,5.12,5.12s5.12-2.294,5.12-5.12V294.13h17.777v25.892c0,2.826,2.289,5.12,5.12,5.12 c2.831,0,5.12-2.294,5.12-5.12V294.13h17.782v25.892c0,2.826,2.289,5.12,5.12,5.12s5.12-2.294,5.12-5.12V294.13h17.777v25.892 c0,2.826,2.289,5.12,5.12,5.12c2.831,0,5.12-2.294,5.12-5.12V294.13h17.782v25.892c0,2.826,2.289,5.12,5.12,5.12 s5.12-2.294,5.12-5.12V294.13h19.896V399.351z" fill="#000000" style="fill: rgb(255, 0, 0);"></path></g></g></svg>