<!-- icon666.com - MILLIONS OF FREE VECTOR ICONS --><svg enable-background="new 0 0 512 512" viewBox="0 0 512 512" xmlns="http://www.w3.org/2000/svg"><path d="m325.851 265.345c-1.537-1.537-4.03-1.537-5.567 0l-20.018 20.013-84.84-84.916c-13.437-13.441-35.418-13.441-48.851 0l-38.216 38.207c-1.537 1.537-1.537 4.031 0 5.568 1.533 1.537 4.026 1.537 5.563 0l38.221-38.207c10.353-10.367 27.357-10.367 37.71 0l84.845 84.916-19.941 19.928c-1.538 1.537-1.538 4.03 0 5.577l141.161 141.223c14.722 14.632 38.272 13.376 51.133-.019 14.004-14.107 14.004-37.054-.009-51.161zm135.588 186.731c-10.99 10.967-28.954 10.948-39.964 0l-138.368-138.43c9.214-9.214 27.263-27.258 39.96-39.95l138.396 138.336c10.888 10.958 11.057 28.964-.024 40.044z" fill="#000000" style="fill: rgb(230, 0, 0);"></path><path d="m97.426 293.063c-1.087-1.884-3.497-2.531-5.376-1.443-1.884 1.087-2.531 3.496-1.443 5.38l101.816 176.299c.731 1.266 2.053 1.969 3.412 1.969 2.99 0 4.931-3.253 3.407-5.905z" fill="#000000" style="fill: rgb(230, 0, 0);"></path><path d="m23.417 216.368c-1.083-1.884-3.492-2.531-5.375-1.443-1.88 1.087-2.526 3.496-1.439 5.38l153.497 265.863c.727 1.266 2.048 1.969 3.412 1.969 3 0 4.926-3.271 3.407-5.905z" fill="#000000" style="fill: rgb(230, 0, 0);"></path><path d="m213.223 297.777-25.562-7.499c-2.085-.609-4.274.581-4.888 2.662-.614 2.091.586 4.274 2.667 4.894 26.874 7.826 25.609 7.658 26.673 7.658 1.701 0 3.271-1.106 3.773-2.821.617-2.091-.583-4.275-2.663-4.894z" fill="#000000" style="fill: rgb(230, 0, 0);"></path><path d="m72.065 184.46c.506 1.715 2.072 2.822 3.773 2.822 2.62 0 4.523-2.531 3.773-5.053l-7.555-25.534c-.619-2.09-2.808-3.281-4.893-2.662-2.081.619-3.271 2.812-2.657 4.893z" fill="#000000" style="fill: rgb(230, 0, 0);"></path><path d="m182.163 253.44 15.368-3.703c2.109-.506 3.412-2.634 2.901-4.743-.511-2.118-2.634-3.421-4.748-2.906l-15.363 3.703c-2.119.506-3.417 2.634-2.906 4.743.506 2.11 2.625 3.422 4.748 2.906z" fill="#000000" style="fill: rgb(230, 0, 0);"></path><path d="m164.939 326.854c-1.528-1.537-4.021-1.547-5.568-.01-1.537 1.528-1.542 4.021-.009 5.568l11.637 11.688c1.533 1.537 4.026 1.547 5.568.01s1.542-4.031.014-5.568z" fill="#000000" style="fill: rgb(230, 0, 0);"></path><path d="m37.449 210.5c1.538 1.528 4.031 1.528 5.568-.019 1.533-1.537 1.528-4.03-.009-5.568l-11.642-11.585c-1.537-1.538-4.03-1.538-5.568.009-1.533 1.537-1.528 4.031.009 5.568z" fill="#000000" style="fill: rgb(230, 0, 0);"></path><path d="m120.283 192.54c1.781 0 3.393-1.209 3.825-3.018l3.655-15.298c.506-2.119-.796-4.246-2.915-4.743-2.118-.516-4.237.797-4.743 2.906l-3.656 15.307c-.59 2.465 1.284 4.846 3.834 4.846z" fill="#000000" style="fill: rgb(230, 0, 0);"></path><path d="m162.286 280.999-13.849-3.703c-2.1-.563-4.26.685-4.823 2.784-.558 2.1.689 4.265 2.789 4.818 14.75 3.89 13.953 3.833 14.871 3.833 1.744 0 3.333-1.162 3.806-2.915.557-2.099-.694-4.264-2.794-4.817z" fill="#000000" style="fill: rgb(230, 0, 0);"></path><path d="m85.01 223.445c.469 1.762 2.063 2.925 3.796 2.925 2.587 0 4.476-2.456 3.811-4.959l-3.693-13.835c-.558-2.109-2.723-3.355-4.818-2.793-2.1.562-3.351 2.718-2.789 4.818z" fill="#000000" style="fill: rgb(230, 0, 0);"></path><path d="m152.744 250.788-8.474 2.24c-2.104.553-3.356 2.709-2.803 4.809s2.704 3.355 4.813 2.803l8.474-2.24c2.104-.563 3.355-2.709 2.798-4.818-.552-2.101-2.708-3.357-4.808-2.794z" fill="#000000" style="fill: rgb(230, 0, 0);"></path><path d="m130.726 298.189c-1.547 1.528-1.556 4.021-.019 5.559l6.187 6.233c1.519 1.538 4.012 1.557 5.568.02 1.537-1.528 1.546-4.021.019-5.568l-6.187-6.224c-1.538-1.547-4.026-1.557-5.568-.02z" fill="#000000" style="fill: rgb(230, 0, 0);"></path><path d="m66.099 239.146c1.542 1.538 4.036 1.538 5.568-.009 1.533-1.537 1.533-4.031-.009-5.559l-6.154-6.14c-1.537-1.537-4.031-1.528-5.568.009-1.533 1.538-1.528 4.031.009 5.568z" fill="#000000" style="fill: rgb(230, 0, 0);"></path><path d="m113.038 228.497c1.743 0 3.337-1.162 3.806-2.924l2.212-8.38c.558-2.1-.693-4.256-2.798-4.809-2.1-.562-4.256.694-4.813 2.793l-2.212 8.38c-.662 2.494 1.217 4.94 3.805 4.94z" fill="#000000" style="fill: rgb(230, 0, 0);"></path><path d="m444.534 56.023h-136.339c-2.174 0-3.937 1.762-3.937 3.937v78.354c0 2.175 1.763 3.937 3.937 3.937h32.315c.956.394 2.044.394 3.01 0h101.014c2.175 0 3.938-1.762 3.938-3.937v-78.354c0-2.175-1.763-3.937-3.938-3.937zm-3.936 78.354h-90.108l35.09-43.484c1.369-1.697 1.102-4.171-.59-5.54s-4.167-1.097-5.535.59l-39.079 48.434h-28.242v-70.48h128.465v70.48z" fill="#000000" style="fill: rgb(230, 0, 0);"></path><path d="m386.559 116.52c1.148 0 2.287-.497 3.065-1.462l24.681-30.605c1.364-1.687 1.097-4.171-.595-5.53-1.692-1.369-4.172-1.106-5.535.59l-24.677 30.605c-2.1 2.596-.196 6.402 3.061 6.402z" fill="#000000" style="fill: rgb(230, 0, 0);"></path><path d="m491.998 104.363h-12.978v-55.117c0-13.995-11.385-25.384-25.38-25.384h-154.551c-14.032 0-25.453 11.389-25.453 25.384v55.117h-12.974c-2.175 0-3.937 1.762-3.937 3.937v42.884c0 2.175 1.762 3.937 3.937 3.937h12.974v55.117c0 13.995 11.421 25.384 25.453 25.384h154.552c13.995 0 25.38-11.389 25.38-25.384v-55.117h12.978c2.175 0 3.937-1.762 3.937-3.937v-42.884c-.001-2.175-1.763-3.937-3.938-3.937zm-227.399 42.884v-35.011h9.037v35.011zm206.552 62.99c0 9.655-7.855 17.51-17.511 17.51h-154.551c-9.692 0-17.58-7.855-17.58-17.51v-160.991c0-9.655 7.888-17.51 17.58-17.51h154.552c9.655 0 17.511 7.855 17.511 17.51v160.991zm16.91-62.99h-9.04v-35.011h9.04z" fill="#000000" style="fill: rgb(230, 0, 0);"></path></svg>